<svg width="153" height="125" viewBox="0 0 153 125" fill="none" xmlns="http://www.w3.org/2000/svg">
<path d="M34 0C39.1834 0.629525 43.578 2.24498 48.375 4.1875C49.9854 4.82629 51.5961 5.4643 53.207 6.10156C54.0122 6.42157 54.8174 6.74158 55.647 7.07129C59.1059 8.43648 62.5806 9.75713 66.0625 11.0625C66.7085 11.305 67.3545 11.5475 68.02 11.7974C72.9071 13.6196 77.8247 15.3468 82.75 17.0625C88.6981 19.1394 94.553 21.3521 100.34 23.8516C102.09 24.607 103.853 25.332 105.629 26.0234C109.227 27.4674 111.509 28.4017 114 31.4375C116.127 36.8877 116.125 42.0464 116.062 47.8125C116.058 48.6008 116.053 49.389 116.049 50.2012C116.037 52.1341 116.019 54.0671 116 56C117.568 56.1818 117.568 56.1818 119.168 56.3672C122.616 56.9365 125.151 57.7103 128.312 59.125C133.746 61.4852 139.225 63.6782 144.75 65.8125C145.561 66.1265 146.372 66.4406 147.208 66.7642C149.138 67.5107 151.069 68.2555 153 69C153 69.33 153 69.66 153 70C152.224 70.1959 151.448 70.3919 150.648 70.5938C124.988 77.698 104.264 97.988 85.3125 115.836C84.744 116.369 84.1755 116.903 83.5898 117.452C82.1239 118.879 80.7444 120.394 79.375 121.914C77 124 77 124 74.457 124.414C71.972 123.995 69.9945 123.383 67.6875 122.375C63.4744 120.582 59.2234 118.932 54.9336 117.332C54.2469 117.075 53.5601 116.819 52.8526 116.554C50.5689 115.702 48.2845 114.851 46 114C44.7898 113.549 44.7898 113.549 43.5551 113.09C41.8671 112.461 40.179 111.832 38.491 111.204C35.0043 109.905 31.5184 108.605 28.0327 107.303C26.2434 106.636 24.4537 105.97 22.6636 105.305C20.0324 104.328 17.4028 103.346 14.7734 102.363C13.9796 102.069 13.1859 101.776 12.368 101.473C8.10524 99.8748 4.03725 98.124 0 96C3.25606 92.076 6.57292 88.4084 10.25 84.875C22.7165 72.4923 32.0067 57.4996 38 41C38.2462 40.3297 38.4924 39.6594 38.7461 38.9688C42.6988 26.1019 39.6539 11.8464 34 0ZM42.5 6.5C43 7.5 44.3171 10.9362 44.4805 11.9336C47.7039 34.7379 40.8932 54.2021 27.4375 72.5C23.9667 76.9362 20.2901 81.1533 16.4336 85.2578C14.7882 86.8814 13.7882 85.8814 14 88C14 88 14.0409 89.4022 13.0625 89.8125C11 92.5 10.6687 90.8867 10 94C23.5797 100.557 37.5785 105.553 51.8247 110.447C57.5634 112.437 63.0923 114.659 68.5898 117.25C71.5978 118.186 73.0443 118.091 76 117C84.3305 109.916 90.2746 100.194 96 91C96.369 90.4185 96.738 89.8369 97.1182 89.2378C105.148 76.4863 111.137 62.2889 111.25 47.0625C111.271 46.3722 111.291 45.6819 111.312 44.9707C111.349 40.2134 110.685 36.9448 108 33C99.9991 27.5676 89.4643 24.9811 80.3633 21.8672C74.7621 19.9384 69.2214 17.8633 63.6875 15.75C62.8225 15.4208 61.9576 15.0916 61.0664 14.7524C57.3654 13.3334 53.701 11.8833 50.082 10.2656C47.0928 8.81007 45 8 42.5 6.5Z" fill="#111111"/>
</svg>
